<?xml version="1.0" encoding="UTF-8"?>
<!DOCTYPE svg  PUBLIC '-//W3C//DTD SVG 20010904//EN'  'http://www.w3.org/TR/2001/REC-SVG-20010904/DTD/svg10.dtd'>
<svg width="900pt" height="512pt" version="1.0" viewBox="0 0 900 512" xmlns="http://www.w3.org/2000/svg">
<g transform="translate(0 512) scale(.1 -.1)">
<path d="m3403 5110c-12-5-29-20-39-35-16-24-15-31 7-133 44-204 25-429-48-565-38-69-133-169-218-229-68-48-94-77-95-108 0-8 31-80 69-160 135-284 262-599 339-842 94-295 110-464 58-618-77-228-214-506-417-846-107-179-106-196 18-265 268-146 510-325 705-521 127-128 182-205 354-497 85-145 153-224 224-262 39-21 59-24 140-24 80 1 102 4 140 24 72 38 140 118 225 262 168 289 225 368 352 496 192 191 395 345 648 488 66 38 128 77 138 88 31 35 21 71-62 210-229 386-385 714-438 920-39 154 30 456 207 900 69 175 177 422 225 518 72 140 68 162-39 237-208 145-288 303-288 567 0 85 5 156 16 205 30 135 30 134 3 166l-25 29-204 3c-219 4-267-3-286-40-6-13-16-68-21-123-18-173-58-282-144-394-122-158-352-232-577-187-274 56-436 269-465 611-12 134-14 135-277 134-112 0-213-4-225-9zm331-182c48-270 105-398 241-533 147-147 334-214 565-202 132 7 206 24 305 72 210 101 377 345 410 600 12 90 6 85 107 85h91l-7-42c-23-153-16-340 15-448 49-165 122-274 271-405l57-50-78-170c-233-509-374-944-388-1200-5-87-2-114 20-201 45-174 157-428 315-714 44-80 79-146 78-147s-40 5-86 13c-109 19-319 21-356 2-54-26-67-83-30-133 13-18 30-21 183-27 92-3 192-12 221-20l53-13-138-91c-326-215-619-498-741-716-15-27-29-48-32-48s-2 44 2 98c23 299 79 478 193 618 71 87 74 137 8 172-36 20-61 14-104-25-79-71-153-201-199-348-52-170-88-489-76-692l6-112-36-35c-62-60-146-60-208 0l-36 35 6 122c11 207-23 510-76 682-103 331-317 511-647 544-94 10-263 0-337-20-21-6-39-9-41-7s43 87 99 190c158 288 275 565 307 727 45 231-109 766-400 1386l-61 130 58 50c187 163 262 298 293 530 11 85 8 225-7 323l-7 42h91c87 0 92-1 96-22zm17-3521c217-71 335-215 399-491 21-91 40-248 40-328v-53l-36 59c-149 248-476 554-813 761-35 22-59 41-54 42 6 2 39 10 74 18 82 19 323 14 390-8z"/>
</g>
</svg>
