<?xml version="1.0" encoding="UTF-8"?>
<!DOCTYPE svg  PUBLIC '-//W3C//DTD SVG 20010904//EN'  'http://www.w3.org/TR/2001/REC-SVG-20010904/DTD/svg10.dtd'>
<svg width="920pt" height="512pt" version="1.0" viewBox="0 0 920 512" xmlns="http://www.w3.org/2000/svg">
<g transform="translate(0 512) scale(.1 -.1)">
<path d="m2360 4392c0-433-1-460-35-822-65-705-185-2005-230-2490-24-267-47-508-50-536l-6-51 118-31c769-203 1299-231 1917-102 77 17 157 34 176 40l35 10 74 312c41 172 106 432 144 578s74 284 80 308c6 23 13 42 16 42 10 0 116-404 218-833l98-407 35-10c83-24 331-71 477-92 131-18 204-22 428-22 292 0 377 8 700 66 146 26 591 130 601 141 2 2-68 779-156 1728l-160 1724v448 447h-2240-2240v-448zm710-47v-285l-247 2-248 3-3 283-2 282h250 250v-285zm710 0v-285l-247 2-248 3-3 283-2 282h250 250v-285zm710 0v-285l-246 2-247 3-1 282-1 283h248 247v-285zm715 2v-282l-247-3-248-2v285 285h248 247v-283zm713 1-3-283-247-3-248-2v285 285h250 250l-2-282zm710 0-3-283-247-3-248-2v285 285h250 250l-2-282zm-3422-572c-14-150-53-318-112-471-108-286-333-490-575-520l-55-7 32 334c17 183 39 424 49 536l19 202h324 325l-7-74zm2575-6c15-169 64-387 120-527 157-395 421-623 777-672 41-5 75-11 76-13 2-2 42-430 90-952 67-724 85-951 76-956-15-9-361-84-486-105-456-76-757-72-1231 16-62 12-113 23-113 25s-34 145-75 317c-192 799-282 1084-353 1121-73 38-135 13-179-71-64-121-167-497-358-1300l-17-71-111-21c-551-102-898-93-1507 38-200 43-220 49-220 69 0 9 13 156 30 327 16 171 54 591 86 935 31 344 58 626 60 628 1 2 35 8 76 13 305 42 542 214 701 510 57 106 98 210 131 330 30 113 66 319 66 381 0 25 3 48 7 51 3 4 533 6 1177 5l1171-3 6-75zm888-282c19-200 41-441 50-537l17-173-48 6c-249 33-469 228-581 515-55 141-100 330-113 477l-7 74h325 324l33-362z"/>
<path d="m4058 3635c-202-55-274-277-148-459 84-124 225-187 418-187 93-1 103-2 97-17-38-94-135-355-133-357 2-1 17-7 33-13 17-5 60-22 96-35l66-26 54 144c30 80 56 145 59 145s29-65 59-145l54-144 66 26c36 13 80 30 96 35 17 6 31 12 33 13 2 2-69 193-133 357-6 15 5 16 97 17 151 0 251 31 345 108 86 69 134 166 134 270 1 244-283 362-530 221-59-34-168-138-198-188-9-17-20-30-23-30s-14 13-23 30c-30 50-139 154-198 188-101 58-219 75-321 47zm155-206c23-5 63-25 88-43 48-35 139-148 139-172 0-20-182-19-241 1-87 31-143 95-137 158 2 25 11 36 38 49 41 21 56 22 113 7zm902-13c46-30 26-111-40-161-50-39-116-55-222-55-73 0-93 3-93 14 0 24 92 138 138 170 78 56 162 68 217 32z"/>
</g>
</svg>
